<svg width="15" height="15" viewBox="0 0 15 15" fill="none" xmlns="http://www.w3.org/2000/svg">
<g clip-path="url(#clip0_1_7)">
<path d="M12.8906 12.0047C13.9506 10.743 14.5317 9.14788 14.5317 7.50001C14.5317 5.85213 13.9506 4.25704 12.8906 2.99532C12.8437 2.93907 12.7922 2.89219 12.7453 2.84063C12.6422 2.71876 12.5344 2.60157 12.4219 2.48907L12.1875 2.26407C12.0891 2.17501 11.9906 2.08594 11.8828 2.00157L11.6109 1.80001C11.5078 1.72501 11.4047 1.65001 11.2922 1.57969L10.9922 1.40626C10.8797 1.34063 10.7625 1.27969 10.6406 1.21876L10.3547 1.08282C10.2234 1.02188 10.0922 0.97032 9.96093 0.923445C9.82968 0.87657 9.77811 0.848444 9.68436 0.820319C9.59061 0.792194 9.38436 0.731257 9.21561 0.693757L8.96249 0.628132C8.78905 0.590632 8.61561 0.567194 8.44218 0.543757C8.37186 0.543757 8.30155 0.515632 8.23124 0.510944C7.73282 0.454706 7.22966 0.454706 6.73124 0.510944C6.66093 0.510944 6.59061 0.510944 6.5203 0.543757C6.34686 0.567194 6.17343 0.590632 5.99999 0.628132L5.74686 0.693757C5.59686 0.731257 5.44061 0.773444 5.27811 0.820319C5.18436 0.848444 5.0953 0.885945 5.00155 0.923445C4.9078 0.960945 4.73905 1.02188 4.6078 1.08282L4.35936 1.21876C4.23749 1.27969 4.1203 1.34063 4.0078 1.40626L3.72186 1.57969C3.60936 1.65001 3.50624 1.72501 3.40311 1.80001L3.13124 2.00157C3.02343 2.08594 2.92499 2.17501 2.82655 2.26407L2.58749 2.47501C2.47499 2.58751 2.36718 2.70469 2.26405 2.82657C2.21718 2.87813 2.16561 2.92501 2.11874 2.98126C1.05876 4.24298 0.477661 5.83807 0.477661 7.48594C0.477661 9.13382 1.05876 10.7289 2.11874 11.9906C2.16561 12.0469 2.21718 12.0938 2.26405 12.1453C2.36718 12.2672 2.47499 12.3844 2.58749 12.4969L2.82655 12.7078C2.92499 12.7969 3.02343 12.8859 3.13124 12.9703L3.40311 13.1719C3.50624 13.2469 3.60936 13.3219 3.72186 13.3922L4.0078 13.5656C4.1203 13.6313 4.23749 13.6922 4.35936 13.7531L4.6453 13.8938C4.77655 13.95 4.9078 14.0016 5.03905 14.0484C5.1328 14.0859 5.22186 14.1234 5.31561 14.1516C5.40936 14.1797 5.61561 14.2406 5.78436 14.2781L6.03749 14.3438C6.21093 14.3813 6.38436 14.4047 6.5578 14.4281C6.62811 14.4281 6.69843 14.4563 6.76874 14.4609C7.26716 14.5172 7.77032 14.5172 8.26874 14.4609C8.33905 14.4609 8.40936 14.4375 8.47968 14.4281C8.65311 14.4047 8.82655 14.3813 8.99999 14.3438L9.25311 14.2781C9.40311 14.2406 9.55936 14.1984 9.72186 14.1516C9.81561 14.1234 9.90468 14.0859 9.99843 14.0484C10.0922 14.0109 10.2609 13.95 10.3922 13.8938L10.6781 13.7531C10.8 13.6922 10.9172 13.6313 11.0297 13.5656L11.3156 13.3922C11.4281 13.3219 11.5312 13.2469 11.6344 13.1719L11.9062 12.9703C12.0141 12.8859 12.1125 12.7969 12.2109 12.7078L12.45 12.4969C12.5625 12.3844 12.6703 12.2672 12.7734 12.1453C12.8203 12.0938 12.8719 12.0469 12.9187 11.9906L12.8906 12.0047ZM12.4828 10.9922C12.1592 10.6661 11.8043 10.3725 11.4234 10.1156C11.8176 8.39416 11.8176 6.60586 11.4234 4.88438C11.8043 4.62751 12.1592 4.33392 12.4828 4.00782C13.2059 5.02875 13.5942 6.24896 13.5942 7.50001C13.5942 8.75106 13.2059 9.97126 12.4828 10.9922ZM11.8453 11.7609C11.7703 11.8406 11.6953 11.9063 11.6156 11.9813L11.4047 12.1734C11.325 12.2391 11.2453 12.2953 11.1656 12.3563L10.9266 12.5344C10.8375 12.5953 10.7484 12.6469 10.6594 12.6984C10.5703 12.75 10.5 12.8016 10.4156 12.8484C10.3312 12.8953 10.2609 12.9234 10.1859 12.9609C10.5976 12.3872 10.9215 11.7552 11.1469 11.0859C11.4118 11.2766 11.6611 11.4882 11.8922 11.7188L11.8453 11.7609ZM4.3453 12.6984C4.25624 12.6469 4.16718 12.5953 4.07811 12.5344L3.83905 12.3563C3.75936 12.2953 3.67968 12.2391 3.59999 12.1734L3.38905 11.9813C3.30936 11.9063 3.23436 11.8406 3.15936 11.7609L3.11249 11.7141C3.34303 11.4786 3.59228 11.2623 3.8578 11.0672C4.07589 11.7351 4.39183 12.367 4.7953 12.9422C4.7203 12.9047 4.64061 12.8719 4.56561 12.8297C4.49061 12.7875 4.4203 12.75 4.34061 12.6984H4.3453ZM4.21874 7.50001C4.2191 6.78985 4.29134 6.08155 4.43436 5.38594C5.24658 5.78625 6.12823 6.02655 7.03124 6.09376V8.95313C6.1298 9.01299 5.24822 9.24532 4.43436 9.63751C4.28976 8.93423 4.21751 8.218 4.21874 7.50001ZM3.15468 3.23907C3.22968 3.15938 3.30468 3.09376 3.38436 3.01876L3.5953 2.81251C3.67499 2.74688 3.75468 2.69063 3.83436 2.62969L4.07343 2.45157C4.16249 2.39063 4.25155 2.33907 4.34061 2.28751C4.42968 2.23594 4.49999 2.18438 4.58436 2.13751C4.66874 2.09063 4.73905 2.06251 4.81405 2.02501C4.41058 2.60022 4.09464 3.2321 3.87655 3.90001C3.604 3.71488 3.3469 3.50795 3.1078 3.28126L3.15468 3.23907ZM10.6547 2.30157C10.7437 2.35313 10.8328 2.40469 10.9219 2.46563L11.1609 2.64376C11.2406 2.70469 11.3203 2.76094 11.4 2.82657L11.6109 3.01876C11.6906 3.09376 11.7656 3.15938 11.8406 3.23907L11.8875 3.28594C11.6569 3.52137 11.4077 3.7377 11.1422 3.93282C10.9168 3.26354 10.5929 2.6316 10.1812 2.05782C10.2562 2.09532 10.3359 2.12813 10.4109 2.17032C10.4859 2.21251 10.5797 2.25001 10.6594 2.30157H10.6547ZM10.7812 7.50001C10.7809 8.21016 10.7086 8.91846 10.5656 9.61407C9.75175 9.22188 8.87018 8.98955 7.96874 8.92969V6.09376C8.87018 6.0339 9.75175 5.80157 10.5656 5.40938C10.7071 6.09732 10.7793 6.79768 10.7812 7.50001ZM7.96874 13.5188V9.86719C8.78749 9.93195 9.58471 10.1615 10.3125 10.5422C9.84374 12.1078 8.96249 13.2422 7.96874 13.5188ZM7.96874 5.15626V1.48126C8.96249 1.75782 9.84374 2.88751 10.3125 4.45782C9.58646 4.84662 8.78916 5.08422 7.96874 5.15626ZM7.03124 1.48126V5.15626C6.21248 5.0915 5.41527 4.8619 4.68749 4.48126C5.15624 2.89219 6.03749 1.75782 7.03124 1.48126ZM7.03124 9.86719V13.5188C6.03749 13.2422 5.15624 12.1125 4.68749 10.5422C5.41527 10.1615 6.21248 9.93195 7.03124 9.86719ZM2.51718 4.00782C2.84082 4.33392 3.19564 4.62751 3.57655 4.88438C3.18237 6.60586 3.18237 8.39416 3.57655 10.1156C3.19564 10.3725 2.84082 10.6661 2.51718 10.9922C1.79411 9.97126 1.40578 8.75106 1.40578 7.50001C1.40578 6.24896 1.79411 5.02875 2.51718 4.00782Z" fill="#BFBFBF"/>
</g>
<defs>
<clipPath id="clip0_1_7">
<rect width="15" height="15" fill="white"/>
</clipPath>
</defs>
</svg>
