<svg width="15" height="15" viewBox="0 0 15 15" fill="none" xmlns="http://www.w3.org/2000/svg">
<path d="M0 1.74242C0 1.23736 0.168924 0.820696 0.506757 0.492423C0.84459 0.164136 1.28379 0 1.82432 0C2.35522 0 2.78474 0.161606 3.11293 0.484848C3.45077 0.81818 3.61969 1.25251 3.61969 1.78788C3.61969 2.27272 3.4556 2.67675 3.12741 2.99999C2.78958 3.33333 2.34556 3.49999 1.79537 3.49999H1.78089C1.25 3.49999 0.820468 3.33333 0.492278 2.99999C0.164088 2.66666 0 2.24747 0 1.74242ZM0.188224 15V4.87878H3.40251V15H0.188224ZM5.1834 15H8.39768V9.34847C8.39768 8.99492 8.4363 8.7222 8.51351 8.53029C8.64864 8.18685 8.85376 7.89644 9.12886 7.65908C9.40396 7.4217 9.74903 7.30302 10.1641 7.30302C11.2452 7.30302 11.7857 8.06564 11.7857 9.59089V15H15V9.19695C15 7.702 14.6622 6.56817 13.9865 5.79544C13.3108 5.02272 12.418 4.63636 11.3079 4.63636C10.0627 4.63636 9.09266 5.19696 8.39768 6.31817V6.34847H8.3832L8.39768 6.31817V4.87878H5.1834C5.2027 5.20201 5.21236 6.20705 5.21236 7.89393C5.21236 9.58079 5.2027 11.9495 5.1834 15Z" fill="white"/>
</svg>
