<svg width="26" height="21" viewBox="0 0 26 21" fill="none" xmlns="http://www.w3.org/2000/svg">
<path d="M3.93264 12.2251C4.85015 8.671 8.68563 6.14572 13.0001 6.14572C17.3131 6.14572 21.1486 8.671 22.0675 12.2251C22.1039 12.3661 22.2082 12.4897 22.3576 12.5686C22.5069 12.6476 22.6891 12.6755 22.8639 12.6461C23.0387 12.6168 23.1919 12.5326 23.2898 12.4121C23.3877 12.2916 23.4223 12.1447 23.3859 12.0037C22.3406 7.96128 17.9683 5.06052 13.0001 5.06052C8.03181 5.06052 3.65955 7.96128 2.61424 12.0037C2.57784 12.1447 2.61239 12.2916 2.71028 12.4121C2.80817 12.5326 2.96139 12.6168 3.13622 12.6461C3.31105 12.6755 3.49318 12.6476 3.64254 12.5686C3.7919 12.4897 3.89625 12.3661 3.93264 12.2251ZM12.9866 8.31614C14.2354 8.31614 15.433 8.71631 16.3161 9.42861C17.1991 10.1409 17.6952 11.107 17.6952 12.1144C17.6952 13.1217 17.1991 14.0878 16.3161 14.8001C15.433 15.5124 14.2354 15.9126 12.9866 15.9126C11.7378 15.9126 10.5402 15.5124 9.65712 14.8001C8.77409 14.0878 8.278 13.1217 8.278 12.1144C8.278 11.107 8.77409 10.1409 9.65712 9.42861C10.5402 8.71631 11.7378 8.31614 12.9866 8.31614Z" fill="#D7D7D7"/>
</svg>
